<svg id="svg" version="1.1" xmlns="http://www.w3.org/2000/svg" xmlns:xlink="http://www.w3.org/1999/xlink" width="400" height="400" viewBox="0, 0, 400,400"><g id="svgg"><path id="path0" d="M164.800 41.000 C 164.392 41.491,164.420 41.600,164.951 41.600 C 165.308 41.600,165.600 41.330,165.600 41.000 C 165.600 40.670,165.532 40.400,165.449 40.400 C 165.366 40.400,165.074 40.670,164.800 41.000 M159.043 44.412 C 158.626 44.832,158.086 45.065,157.843 44.929 C 157.599 44.794,157.632 44.933,157.917 45.238 C 158.266 45.614,158.525 45.656,158.717 45.367 C 158.872 45.133,159.315 44.825,159.700 44.683 C 160.085 44.541,160.400 44.239,160.400 44.013 C 160.400 43.402,159.897 43.550,159.043 44.412 M113.782 89.978 C 113.563 90.197,111.888 90.404,110.060 90.438 C 107.650 90.481,106.679 90.649,106.526 91.049 C 106.375 91.443,105.530 91.600,103.557 91.600 C 101.986 91.600,100.800 91.772,100.800 92.000 C 100.800 92.220,99.894 92.400,98.787 92.400 C 97.368 92.400,96.707 92.577,96.545 93.000 C 96.388 93.407,95.750 93.600,94.557 93.600 C 93.591 93.600,92.800 93.780,92.800 94.000 C 92.800 94.220,92.164 94.400,91.387 94.400 C 90.501 94.400,89.889 94.623,89.745 95.000 C 89.603 95.370,88.995 95.600,88.157 95.600 C 87.411 95.600,86.800 95.780,86.800 96.000 C 86.800 96.220,86.344 96.400,85.787 96.400 C 85.231 96.400,84.671 96.670,84.545 97.000 C 84.418 97.330,84.010 97.600,83.637 97.600 C 83.265 97.600,82.718 97.825,82.421 98.100 C 81.990 98.500,81.939 98.500,82.165 98.100 C 82.320 97.825,82.257 97.600,82.024 97.600 C 81.791 97.600,81.600 98.069,81.600 98.643 C 81.600 99.368,81.431 99.621,81.045 99.473 C 80.656 99.323,80.551 99.490,80.692 100.030 C 80.831 100.562,80.688 100.800,80.228 100.800 C 79.861 100.800,79.165 101.215,78.681 101.723 C 78.196 102.231,77.080 103.172,76.200 103.814 C 61.918 114.238,49.827 133.277,45.473 152.200 C 44.858 154.873,44.642 156.005,43.593 162.048 C 42.585 167.862,42.436 191.641,43.399 193.198 C 43.509 193.376,43.777 195.114,43.996 197.060 C 44.214 199.007,44.678 202.040,45.026 203.800 C 45.375 205.560,45.821 207.810,46.018 208.800 C 46.215 209.790,46.659 211.770,47.005 213.200 C 47.350 214.630,47.790 216.520,47.983 217.400 C 48.175 218.280,48.628 220.080,48.988 221.400 C 49.349 222.720,49.800 224.430,49.990 225.200 C 50.181 225.970,50.633 227.590,50.996 228.800 C 51.359 230.010,51.806 231.540,51.990 232.200 C 52.848 235.278,54.118 239.477,54.409 240.200 C 54.587 240.640,55.044 241.990,55.426 243.200 C 55.807 244.410,56.530 246.570,57.033 248.000 C 57.535 249.430,58.219 251.410,58.553 252.400 C 59.465 255.103,61.154 259.694,61.570 260.600 C 61.772 261.040,62.252 262.300,62.635 263.400 C 63.018 264.500,63.482 265.571,63.666 265.780 C 63.850 265.989,64.000 266.405,64.000 266.705 C 64.000 267.004,64.425 268.183,64.945 269.325 C 65.465 270.466,66.129 272.030,66.420 272.800 C 66.712 273.570,67.563 275.550,68.312 277.200 C 69.061 278.850,69.953 280.830,70.294 281.600 C 71.562 284.462,78.425 298.277,79.635 300.400 C 80.324 301.610,81.418 303.553,82.066 304.719 C 88.551 316.377,97.317 327.737,106.151 335.930 C 117.130 346.113,133.176 354.162,148.800 357.325 C 155.033 358.586,156.814 358.826,164.739 359.469 C 177.437 360.500,190.301 359.324,207.300 355.579 C 209.156 355.170,210.044 355.170,211.900 355.579 C 234.792 360.623,252.302 361.147,270.400 357.331 C 275.431 356.270,281.516 354.562,283.800 353.570 C 284.240 353.378,285.590 352.843,286.800 352.379 C 306.904 344.679,324.337 327.996,338.016 303.367 C 338.739 302.065,339.688 300.370,340.126 299.600 C 341.693 296.839,347.200 285.655,347.200 285.232 C 347.200 284.994,347.380 284.800,347.600 284.800 C 347.820 284.800,348.000 284.462,348.000 284.049 C 348.000 283.636,348.270 283.074,348.600 282.800 C 348.930 282.526,349.200 281.975,349.200 281.575 C 349.200 281.175,349.366 280.745,349.569 280.619 C 349.772 280.494,350.057 279.853,350.201 279.195 C 350.345 278.538,350.629 278.000,350.832 278.000 C 351.034 278.000,351.200 277.550,351.200 277.000 C 351.200 276.378,351.427 276.000,351.800 276.000 C 352.200 276.000,352.400 275.600,352.400 274.800 C 352.400 274.107,352.611 273.600,352.900 273.600 C 353.175 273.600,353.427 273.138,353.459 272.574 C 353.535 271.270,353.940 270.856,354.405 271.608 C 354.703 272.091,354.857 272.101,355.283 271.668 C 355.706 271.238,355.691 271.166,355.200 271.271 C 354.804 271.356,354.558 271.033,354.475 270.318 C 354.371 269.416,354.486 269.262,355.167 269.394 C 355.616 269.480,356.105 269.354,356.253 269.114 C 356.415 268.851,356.339 268.791,356.062 268.962 C 355.772 269.141,355.600 268.950,355.600 268.447 C 355.600 268.007,355.780 267.536,356.000 267.400 C 356.220 267.264,356.400 266.623,356.400 265.976 C 356.400 265.329,356.577 264.800,356.792 264.800 C 357.008 264.800,357.297 264.351,357.435 263.803 C 357.573 263.254,357.851 262.908,358.053 263.032 C 358.255 263.157,358.394 263.111,358.363 262.930 C 358.148 261.696,358.475 260.400,359.000 260.400 C 359.419 260.400,359.600 259.978,359.600 259.000 C 359.600 258.230,359.780 257.600,360.000 257.600 C 360.220 257.600,360.400 256.880,360.400 256.000 C 360.400 254.844,360.567 254.400,361.000 254.400 C 361.419 254.400,361.600 253.978,361.600 253.000 C 361.600 252.230,361.780 251.600,362.000 251.600 C 362.220 251.600,362.400 250.874,362.400 249.987 C 362.400 248.923,362.604 248.297,363.000 248.145 C 363.367 248.004,363.600 247.397,363.600 246.581 C 363.600 245.847,363.780 245.136,364.000 245.000 C 364.220 244.864,364.400 243.953,364.400 242.976 C 364.400 241.851,364.568 241.237,364.858 241.300 C 365.110 241.355,365.395 240.771,365.491 240.001 C 365.588 239.231,365.799 238.421,365.959 238.201 C 366.120 237.980,366.301 237.080,366.363 236.200 C 366.424 235.320,366.728 234.456,367.037 234.280 C 367.389 234.080,367.600 233.292,367.600 232.180 C 367.600 231.201,367.780 230.400,368.000 230.400 C 368.220 230.400,368.400 229.494,368.400 228.387 C 368.400 226.968,368.577 226.307,369.000 226.145 C 369.431 225.979,369.600 225.306,369.600 223.757 C 369.600 222.571,369.780 221.600,370.000 221.600 C 370.220 221.600,370.400 220.625,370.400 219.433 C 370.400 218.242,370.586 217.205,370.814 217.129 C 371.284 216.972,371.972 212.553,372.267 207.800 C 372.400 205.645,372.648 204.497,373.024 204.285 C 373.882 203.801,373.849 171.906,372.990 171.047 C 372.603 170.660,372.400 169.643,372.400 168.095 C 372.400 166.796,372.275 165.608,372.122 165.455 C 371.792 165.125,371.666 164.395,371.542 162.086 C 371.491 161.144,371.213 160.177,370.925 159.937 C 370.636 159.698,370.400 158.793,370.400 157.927 C 370.400 156.980,370.241 156.451,370.000 156.600 C 369.763 156.747,369.581 156.228,369.554 155.324 C 369.483 152.987,369.438 152.797,368.875 152.448 C 368.586 152.268,368.334 151.554,368.314 150.861 C 368.294 150.167,368.126 149.600,367.939 149.600 C 367.753 149.600,367.600 149.215,367.600 148.744 C 367.600 148.273,367.334 147.688,367.008 147.444 C 366.683 147.200,366.375 146.415,366.323 145.700 C 366.272 144.985,366.108 144.400,365.958 144.400 C 365.809 144.400,365.574 143.950,365.436 143.400 C 365.298 142.850,365.008 142.400,364.792 142.400 C 364.577 142.400,364.400 141.950,364.400 141.400 C 364.400 140.850,364.220 140.400,364.000 140.400 C 363.780 140.400,363.600 139.950,363.600 139.400 C 363.600 138.778,363.373 138.400,363.000 138.400 C 362.627 138.400,362.400 138.022,362.400 137.400 C 362.400 136.850,362.220 136.400,362.000 136.400 C 361.780 136.400,361.600 136.152,361.600 135.849 C 361.600 135.546,361.330 135.074,361.000 134.800 C 360.670 134.526,360.400 133.964,360.400 133.551 C 360.400 133.138,360.220 132.800,360.000 132.800 C 359.780 132.800,359.600 132.530,359.600 132.200 C 359.600 131.870,359.330 131.600,359.000 131.600 C 358.627 131.600,358.400 131.222,358.400 130.600 C 358.400 130.013,358.193 129.641,357.900 129.700 C 357.625 129.755,357.423 129.499,357.450 129.132 C 357.481 128.718,357.291 128.544,356.950 128.674 C 356.574 128.819,356.400 128.570,356.400 127.886 C 356.400 127.336,356.119 126.778,355.775 126.646 C 355.431 126.514,355.261 126.224,355.398 126.003 C 355.535 125.781,355.367 125.600,355.024 125.600 C 354.681 125.600,354.400 125.408,354.400 125.173 C 354.400 124.938,353.745 124.128,352.944 123.373 C 352.143 122.618,351.718 122.000,352.000 122.000 C 352.282 122.000,351.812 121.337,350.956 120.527 C 350.100 119.717,349.443 118.914,349.495 118.742 C 349.548 118.570,349.323 118.532,348.995 118.657 C 348.620 118.801,348.400 118.648,348.400 118.243 C 348.400 117.889,348.220 117.600,348.000 117.600 C 347.780 117.600,347.600 117.330,347.600 117.000 C 347.600 116.670,347.421 116.400,347.203 116.400 C 346.984 116.400,345.708 115.320,344.368 114.000 C 343.027 112.680,341.616 111.600,341.233 111.600 C 340.849 111.600,340.294 111.150,340.000 110.600 C 339.706 110.050,339.141 109.600,338.745 109.600 C 338.261 109.600,338.103 109.398,338.262 108.984 C 338.392 108.645,338.341 108.396,338.149 108.431 C 337.375 108.572,336.933 108.340,335.427 107.000 C 334.562 106.230,333.527 105.600,333.127 105.600 C 332.727 105.600,332.400 105.336,332.400 105.013 C 332.400 104.686,332.162 104.516,331.864 104.631 C 331.569 104.744,331.097 104.558,330.815 104.218 C 330.533 103.878,329.964 103.600,329.551 103.600 C 329.138 103.600,328.845 103.375,328.900 103.100 C 328.955 102.825,328.770 102.647,328.489 102.704 C 328.208 102.761,327.873 102.536,327.746 102.204 C 327.619 101.872,327.103 101.600,326.600 101.600 C 326.097 101.600,325.581 101.328,325.454 100.996 C 325.327 100.664,325.082 100.416,324.911 100.444 C 324.006 100.592,323.183 100.351,323.400 100.000 C 323.539 99.775,323.218 99.600,322.666 99.600 C 322.127 99.600,321.579 99.322,321.448 98.981 C 321.318 98.641,320.983 98.392,320.705 98.429 C 319.472 98.590,318.374 98.366,318.600 98.000 C 318.744 97.767,318.337 97.600,317.624 97.600 C 316.803 97.600,316.400 97.403,316.400 97.000 C 316.400 96.631,316.025 96.400,315.424 96.400 C 314.887 96.400,314.336 96.220,314.200 96.000 C 314.064 95.780,313.445 95.600,312.825 95.600 C 312.205 95.600,311.467 95.322,311.185 94.982 C 310.903 94.642,310.453 94.448,310.186 94.550 C 309.918 94.653,309.207 94.481,308.604 94.168 C 308.002 93.856,306.730 93.600,305.778 93.600 C 304.826 93.600,303.919 93.392,303.762 93.138 C 303.573 92.833,303.654 92.786,304.000 93.000 C 304.315 93.195,304.426 93.166,304.279 92.928 C 304.145 92.711,303.281 92.503,302.359 92.467 C 301.437 92.431,300.412 92.176,300.080 91.901 C 299.748 91.625,299.415 91.445,299.339 91.500 C 298.779 91.904,294.400 91.526,294.400 91.074 C 294.400 90.686,293.478 90.523,290.900 90.453 C 288.975 90.401,287.340 90.188,287.267 89.979 C 287.092 89.483,268.289 89.474,267.780 89.971 C 267.571 90.175,265.870 90.400,264.000 90.471 C 261.546 90.564,260.628 90.739,260.700 91.100 C 260.773 91.464,259.993 91.600,257.833 91.600 C 256.150 91.600,254.807 91.779,254.729 92.013 C 254.653 92.240,253.735 92.443,252.687 92.464 C 251.595 92.486,250.659 92.720,250.491 93.014 C 250.331 93.295,249.480 93.582,248.600 93.651 C 247.720 93.720,246.550 94.005,246.000 94.283 C 245.450 94.562,244.685 94.690,244.300 94.568 C 243.837 94.421,243.600 94.558,243.600 94.973 C 243.600 95.438,243.186 95.600,242.000 95.600 C 241.120 95.600,240.400 95.780,240.400 96.000 C 240.400 96.220,239.860 96.400,239.200 96.400 C 238.400 96.400,238.000 96.600,238.000 97.000 C 238.000 97.330,237.660 97.600,237.244 97.600 C 236.828 97.600,235.388 98.410,234.043 99.400 C 232.698 100.390,231.508 101.200,231.399 101.200 C 231.072 101.200,221.983 105.731,219.400 107.182 C 218.080 107.924,216.370 108.878,215.600 109.302 C 214.099 110.129,210.458 112.386,209.800 112.899 C 207.190 114.932,201.247 118.794,200.726 118.797 C 200.317 118.799,199.853 118.249,199.546 117.400 C 198.981 115.838,198.383 115.507,198.642 116.900 C 198.734 117.395,198.702 117.574,198.570 117.298 C 198.439 117.021,198.188 116.884,198.013 116.992 C 197.838 117.100,196.999 116.650,196.148 115.992 C 195.296 115.333,194.150 114.445,193.600 114.017 C 193.050 113.589,191.700 112.423,190.600 111.426 C 189.500 110.428,188.375 109.610,188.100 109.606 C 187.825 109.603,187.600 109.330,187.600 109.000 C 187.600 108.670,187.330 108.400,187.000 108.400 C 186.670 108.400,186.400 108.220,186.400 108.000 C 186.400 107.780,185.950 107.600,185.400 107.600 C 184.761 107.600,184.400 107.375,184.400 106.976 C 184.400 106.633,184.263 106.438,184.095 106.542 C 183.927 106.645,183.020 106.206,182.080 105.565 C 181.141 104.924,180.108 104.400,179.786 104.400 C 179.464 104.400,179.200 104.220,179.200 104.000 C 179.200 103.780,178.750 103.600,178.200 103.600 C 177.650 103.600,177.245 103.400,177.300 103.155 C 177.355 102.910,176.950 102.635,176.400 102.543 C 175.850 102.452,175.340 102.202,175.267 101.988 C 175.193 101.775,174.775 101.600,174.338 101.600 C 173.901 101.600,173.273 101.330,172.943 101.000 C 172.613 100.670,171.916 100.400,171.395 100.400 C 170.874 100.400,170.336 100.220,170.200 100.000 C 170.064 99.780,169.603 99.600,169.176 99.600 C 168.749 99.600,168.400 99.330,168.400 99.000 C 168.400 98.631,168.025 98.400,167.424 98.400 C 166.887 98.400,166.336 98.220,166.200 98.000 C 166.064 97.780,165.333 97.600,164.576 97.600 C 163.781 97.600,163.242 97.414,163.300 97.160 C 163.355 96.918,162.770 96.645,162.000 96.553 C 161.230 96.461,160.540 96.209,160.467 95.993 C 160.393 95.777,159.738 95.600,159.009 95.600 C 158.276 95.600,157.594 95.362,157.481 95.067 C 157.361 94.754,156.568 94.506,155.558 94.467 C 154.613 94.430,153.660 94.220,153.440 94.000 C 153.220 93.780,152.362 93.600,151.533 93.600 C 150.453 93.600,150.082 93.451,150.226 93.075 C 150.372 92.696,149.906 92.524,148.540 92.453 C 147.501 92.399,146.460 92.233,146.226 92.084 C 145.655 91.719,145.560 91.708,142.800 91.650 C 141.049 91.614,140.400 91.451,140.400 91.047 C 140.400 90.623,139.583 90.481,136.900 90.436 C 134.975 90.404,133.344 90.214,133.275 90.014 C 133.100 89.505,114.290 89.470,113.782 89.978 M192.656 92.678 C 192.219 93.114,192.373 93.467,193.000 93.467 C 193.330 93.467,193.600 93.327,193.600 93.157 C 193.600 92.706,192.955 92.379,192.656 92.678 M194.413 98.076 C 194.428 98.725,195.600 100.327,195.600 99.700 C 195.600 99.451,195.417 99.134,195.193 98.996 C 194.970 98.858,194.883 98.590,195.000 98.400 C 195.117 98.210,195.030 97.942,194.807 97.804 C 194.583 97.666,194.406 97.788,194.413 98.076 M287.600 104.803 C 290.130 105.021,293.055 105.380,294.100 105.600 C 295.145 105.820,296.945 106.193,298.100 106.429 C 302.293 107.285,311.930 110.340,314.325 111.572 C 314.696 111.763,316.530 112.660,318.400 113.566 C 320.270 114.473,322.700 115.745,323.800 116.394 C 324.900 117.043,326.340 117.877,327.000 118.247 C 341.404 126.330,351.749 143.529,355.361 165.400 C 356.691 173.448,357.432 192.493,356.606 197.345 C 356.488 198.035,356.221 200.670,356.013 203.200 C 355.805 205.730,355.343 209.690,354.987 212.000 C 354.632 214.310,354.198 217.190,354.024 218.400 C 353.137 224.564,349.921 238.214,349.365 238.173 C 348.850 238.134,348.227 236.717,347.005 232.800 C 345.954 229.430,344.513 225.284,343.322 222.200 C 342.264 219.460,342.107 219.061,341.200 216.800 C 340.714 215.590,340.078 214.060,339.787 213.400 C 339.496 212.740,338.864 211.300,338.382 210.200 C 337.284 207.693,333.206 199.468,332.134 197.600 C 331.692 196.830,330.767 195.185,330.078 193.945 C 321.485 178.472,306.764 160.881,294.600 151.548 C 293.940 151.042,293.310 150.523,293.200 150.394 C 292.759 149.880,284.435 144.006,282.000 142.490 C 275.664 138.547,265.962 133.707,259.800 131.416 C 257.600 130.598,255.440 129.775,255.000 129.588 C 254.116 129.212,248.630 127.570,245.200 126.655 C 238.443 124.853,228.254 123.218,223.493 123.172 C 218.595 123.124,218.626 122.170,223.600 119.870 C 223.930 119.718,224.780 119.241,225.489 118.811 C 228.274 117.121,235.475 113.668,238.800 112.428 C 239.570 112.141,240.767 111.657,241.460 111.353 C 242.154 111.049,242.921 110.800,243.166 110.800 C 243.411 110.800,243.923 110.636,244.305 110.436 C 245.029 110.057,250.205 108.472,254.000 107.467 C 258.203 106.353,265.240 105.148,269.600 104.794 C 274.893 104.364,282.553 104.368,287.600 104.803 M62.639 108.738 C 62.500 108.961,62.582 109.265,62.820 109.412 C 63.435 109.793,63.832 109.272,63.318 108.758 C 63.031 108.471,62.807 108.464,62.639 108.738 M40.667 132.667 C 40.236 133.097,40.359 133.467,40.933 133.467 C 41.227 133.467,41.467 133.227,41.467 132.933 C 41.467 132.359,41.097 132.236,40.667 132.667 M34.639 144.738 C 34.500 144.961,34.582 145.265,34.820 145.412 C 35.435 145.793,35.832 145.272,35.318 144.758 C 35.031 144.471,34.807 144.464,34.639 144.738 M31.000 220.800 C 31.213 221.470,31.156 221.620,30.781 221.388 C 30.453 221.186,30.376 221.238,30.562 221.538 C 30.719 221.792,31.017 222.000,31.224 222.000 C 31.750 222.000,31.696 220.506,31.157 220.174 C 30.855 219.987,30.805 220.187,31.000 220.800 M326.533 329.078 C 326.533 329.685,327.274 329.579,327.486 328.942 C 327.561 328.717,327.377 328.533,327.078 328.533 C 326.778 328.533,326.533 328.778,326.533 329.078 M178.000 374.611 C 178.000 374.699,178.330 374.948,178.733 375.164 C 179.262 375.447,179.467 375.418,179.467 375.058 C 179.467 374.784,179.137 374.535,178.733 374.505 C 178.330 374.475,178.000 374.522,178.000 374.611 " stroke="none" fill="#eb3b33" fill-rule="evenodd"></path><path id="path1" d="M170.300 38.691 C 169.475 38.778,168.800 39.017,168.800 39.224 C 168.800 39.431,168.530 39.600,168.200 39.600 C 167.870 39.600,167.600 39.739,167.600 39.909 C 167.600 40.259,165.459 41.415,164.100 41.799 C 163.605 41.939,163.200 42.200,163.200 42.378 C 163.200 42.557,162.615 42.939,161.900 43.228 C 161.185 43.517,160.456 43.989,160.280 44.277 C 160.104 44.564,159.699 44.800,159.380 44.800 C 159.061 44.800,158.800 44.980,158.800 45.200 C 158.800 45.420,158.451 45.600,158.024 45.600 C 156.517 45.600,156.765 46.473,159.568 51.031 C 161.126 53.564,162.400 55.746,162.400 55.880 C 162.400 56.014,162.850 56.714,163.400 57.436 C 163.950 58.157,164.400 58.851,164.400 58.978 C 164.400 59.105,165.300 60.645,166.400 62.400 C 167.500 64.155,168.400 65.711,168.400 65.858 C 168.400 66.005,168.850 66.714,169.400 67.436 C 169.950 68.157,170.400 68.851,170.400 68.978 C 170.400 69.105,171.300 70.645,172.400 72.400 C 173.500 74.155,174.400 75.695,174.400 75.822 C 174.400 75.949,174.850 76.643,175.400 77.364 C 175.950 78.086,176.400 78.811,176.400 78.976 C 176.400 79.141,176.805 79.844,177.300 80.537 C 177.795 81.230,178.538 82.427,178.950 83.198 C 179.363 83.969,179.813 84.690,179.950 84.800 C 180.172 84.978,180.532 85.591,182.171 88.585 C 182.407 89.016,182.808 89.597,183.063 89.876 C 183.317 90.154,183.766 90.926,184.060 91.591 C 184.354 92.256,184.731 92.800,184.898 92.800 C 185.064 92.800,185.200 93.057,185.200 93.371 C 185.200 93.686,185.425 94.181,185.701 94.471 C 185.976 94.762,186.557 95.675,186.992 96.500 C 187.426 97.325,187.921 98.000,188.091 98.000 C 188.261 98.000,188.400 98.360,188.400 98.800 C 188.400 99.240,188.539 99.600,188.709 99.600 C 188.879 99.600,189.374 100.275,189.808 101.100 C 190.243 101.925,190.824 102.838,191.099 103.129 C 191.375 103.419,191.600 103.914,191.600 104.229 C 191.600 104.543,191.735 104.802,191.900 104.805 C 192.065 104.807,192.544 105.527,192.964 106.405 C 193.385 107.282,193.880 108.000,194.064 108.000 C 194.249 108.000,194.400 108.360,194.400 108.800 C 194.400 109.240,194.539 109.600,194.709 109.600 C 194.879 109.600,195.372 110.275,195.805 111.100 C 196.238 111.925,196.698 112.690,196.826 112.800 C 196.955 112.910,197.407 113.630,197.830 114.400 C 198.254 115.170,198.708 115.890,198.840 116.000 C 198.972 116.110,199.183 116.470,199.308 116.800 C 199.434 117.130,199.551 116.736,199.568 115.924 C 199.586 115.112,199.435 114.345,199.234 114.221 C 199.033 114.096,198.739 112.601,198.581 110.897 C 198.213 106.930,198.243 107.103,197.795 106.400 C 197.584 106.070,197.407 105.710,197.401 105.600 C 197.391 105.411,196.804 103.821,195.923 101.600 C 195.704 101.050,195.273 100.090,194.963 99.468 C 194.653 98.845,194.394 97.945,194.387 97.468 C 194.380 96.990,194.110 96.251,193.787 95.824 C 193.464 95.396,193.200 94.721,193.200 94.324 C 193.200 93.926,193.043 93.600,192.850 93.600 C 192.658 93.600,192.500 93.144,192.500 92.587 C 192.500 92.029,192.186 91.226,191.801 90.802 C 191.417 90.377,191.213 89.744,191.347 89.394 C 191.508 88.976,191.433 88.856,191.127 89.045 C 190.818 89.236,190.749 89.110,190.919 88.666 C 191.060 88.300,191.045 88.000,190.885 88.000 C 190.726 88.000,190.396 87.415,190.153 86.700 C 189.121 83.670,188.181 81.391,187.913 81.271 C 187.755 81.200,187.509 80.523,187.367 79.766 C 187.225 79.010,186.950 78.293,186.755 78.172 C 186.560 78.051,186.400 77.597,186.400 77.162 C 186.400 76.728,186.151 75.973,185.847 75.486 C 185.543 74.999,185.332 74.205,185.379 73.723 C 185.425 73.240,185.293 72.880,185.085 72.923 C 184.877 72.965,184.655 72.694,184.591 72.319 C 184.528 71.945,184.009 70.651,183.438 69.444 C 182.867 68.237,182.400 66.979,182.400 66.648 C 182.400 66.318,182.240 65.949,182.045 65.828 C 181.850 65.707,181.572 64.977,181.427 64.204 C 181.282 63.432,180.992 62.800,180.782 62.800 C 180.572 62.800,180.400 62.271,180.400 61.624 C 180.400 60.977,180.234 60.345,180.031 60.219 C 179.828 60.094,179.543 59.453,179.399 58.795 C 179.255 58.138,178.951 57.600,178.725 57.600 C 178.499 57.600,178.410 57.352,178.526 57.049 C 178.642 56.746,178.536 56.296,178.289 56.049 C 178.042 55.802,177.955 55.600,178.096 55.600 C 178.237 55.600,178.102 55.118,177.797 54.529 C 177.491 53.939,177.321 53.328,177.418 53.171 C 177.516 53.013,177.326 52.781,176.998 52.654 C 176.669 52.528,176.400 52.074,176.400 51.645 C 176.400 51.216,176.100 50.265,175.732 49.532 C 174.507 47.087,174.400 46.815,174.387 46.105 C 174.380 45.717,174.110 45.051,173.787 44.624 C 173.464 44.196,173.200 43.431,173.200 42.924 C 173.200 42.416,173.020 42.000,172.800 42.000 C 172.580 42.000,172.400 41.561,172.400 41.024 C 172.400 40.487,172.208 39.928,171.973 39.783 C 171.738 39.638,171.642 39.267,171.760 38.960 C 171.878 38.652,171.936 38.430,171.887 38.467 C 171.839 38.504,171.125 38.605,170.300 38.691 M269.600 104.794 C 265.240 105.148,258.203 106.353,254.000 107.467 C 250.205 108.472,245.029 110.057,244.305 110.436 C 243.923 110.636,243.411 110.800,243.166 110.800 C 242.921 110.800,242.154 111.049,241.460 111.353 C 240.767 111.657,239.570 112.141,238.800 112.428 C 235.475 113.668,228.274 117.121,225.489 118.811 C 224.780 119.241,223.930 119.718,223.600 119.870 C 218.626 122.170,218.595 123.124,223.493 123.172 C 228.254 123.218,238.443 124.853,245.200 126.655 C 248.630 127.570,254.116 129.212,255.000 129.588 C 255.440 129.775,257.600 130.598,259.800 131.416 C 265.962 133.707,275.664 138.547,282.000 142.490 C 284.435 144.006,292.759 149.880,293.200 150.394 C 293.310 150.523,293.940 151.042,294.600 151.548 C 306.764 160.881,321.485 178.472,330.078 193.945 C 330.767 195.185,331.692 196.830,332.134 197.600 C 333.206 199.468,337.284 207.693,338.382 210.200 C 338.864 211.300,339.496 212.740,339.787 213.400 C 340.078 214.060,340.714 215.590,341.200 216.800 C 342.107 219.061,342.264 219.460,343.322 222.200 C 344.513 225.284,345.954 229.430,347.005 232.800 C 348.227 236.717,348.850 238.134,349.365 238.173 C 349.921 238.214,353.137 224.564,354.024 218.400 C 354.198 217.190,354.632 214.310,354.987 212.000 C 355.343 209.690,355.805 205.730,356.013 203.200 C 356.221 200.670,356.488 198.035,356.606 197.345 C 357.432 192.493,356.691 173.448,355.361 165.400 C 351.749 143.529,341.404 126.330,327.000 118.247 C 326.340 117.877,324.900 117.043,323.800 116.394 C 322.700 115.745,320.270 114.473,318.400 113.566 C 316.530 112.660,314.696 111.763,314.325 111.572 C 311.930 110.340,302.293 107.285,298.100 106.429 C 296.945 106.193,295.145 105.820,294.100 105.600 C 289.052 104.537,277.463 104.156,269.600 104.794 " stroke="none" fill="#f67c75" fill-rule="evenodd"></path><path id="path2" d="M250.600 26.000 C 250.464 26.220,249.933 26.400,249.419 26.400 C 248.906 26.400,248.382 26.670,248.255 27.000 C 248.121 27.351,247.521 27.600,246.813 27.600 C 246.146 27.600,245.600 27.780,245.600 28.000 C 245.600 28.220,245.150 28.400,244.600 28.400 C 243.978 28.400,243.600 28.627,243.600 29.000 C 243.600 29.373,243.222 29.600,242.600 29.600 C 242.050 29.600,241.600 29.780,241.600 30.000 C 241.600 30.220,241.150 30.400,240.600 30.400 C 239.978 30.400,239.600 30.627,239.600 31.000 C 239.600 31.373,239.222 31.600,238.600 31.600 C 238.050 31.600,237.600 31.780,237.600 32.000 C 237.600 32.220,237.330 32.400,237.000 32.400 C 236.670 32.400,236.400 32.670,236.400 33.000 C 236.400 33.340,236.041 33.600,235.571 33.600 C 234.686 33.600,233.600 34.466,233.600 35.171 C 233.600 35.407,233.216 35.600,232.747 35.600 C 232.278 35.600,231.300 36.230,230.574 37.000 C 229.848 37.770,229.090 38.400,228.889 38.400 C 228.689 38.400,228.001 38.850,227.362 39.400 C 226.723 39.949,226.065 40.399,225.900 40.400 C 225.735 40.400,225.600 40.670,225.600 41.000 C 225.600 41.330,225.407 41.600,225.171 41.600 C 224.618 41.600,223.600 42.618,223.600 43.171 C 223.600 43.407,223.407 43.600,223.171 43.600 C 222.618 43.600,221.600 44.618,221.600 45.171 C 221.600 45.407,221.407 45.600,221.171 45.600 C 220.618 45.600,219.600 46.618,219.600 47.171 C 219.600 47.407,219.351 47.600,219.046 47.600 C 218.741 47.600,218.192 48.230,217.827 49.000 C 217.461 49.770,216.991 50.400,216.781 50.400 C 216.572 50.400,216.400 50.577,216.400 50.793 C 216.400 51.009,215.770 51.834,215.000 52.627 C 214.230 53.420,213.600 54.413,213.600 54.834 C 213.600 55.255,213.395 55.600,213.144 55.600 C 212.529 55.600,211.628 56.835,211.613 57.700 C 211.606 58.085,211.375 58.401,211.100 58.403 C 210.584 58.406,209.600 60.161,209.600 61.080 C 209.600 61.366,209.330 61.600,209.000 61.600 C 208.627 61.600,208.400 61.978,208.400 62.600 C 208.400 63.150,208.220 63.600,208.000 63.600 C 207.780 63.600,207.600 64.050,207.600 64.600 C 207.600 65.222,207.373 65.600,207.000 65.600 C 206.627 65.600,206.400 65.978,206.400 66.600 C 206.400 67.150,206.220 67.600,206.000 67.600 C 205.780 67.600,205.600 68.050,205.600 68.600 C 205.600 69.222,205.373 69.600,205.000 69.600 C 204.631 69.600,204.400 69.975,204.400 70.576 C 204.400 71.113,204.220 71.664,204.000 71.800 C 203.780 71.936,203.600 72.557,203.600 73.181 C 203.600 73.819,203.338 74.415,203.000 74.545 C 202.623 74.689,202.400 75.301,202.400 76.187 C 202.400 76.964,202.220 77.600,202.000 77.600 C 201.780 77.600,201.600 78.211,201.600 78.957 C 201.600 79.795,201.370 80.403,201.000 80.545 C 200.590 80.702,200.400 81.343,200.400 82.564 C 200.400 83.548,200.220 84.464,200.000 84.600 C 199.780 84.736,199.600 85.839,199.600 87.052 C 199.600 88.479,199.388 89.469,199.000 89.857 C 198.097 90.760,198.132 106.994,199.043 110.280 C 199.397 111.556,199.835 113.572,200.017 114.759 C 200.554 118.271,202.094 118.538,204.800 115.586 C 206.139 114.126,218.311 106.787,224.000 104.010 C 225.430 103.311,227.454 102.304,228.497 101.770 C 229.540 101.237,230.594 100.800,230.839 100.800 C 231.084 100.800,232.084 100.260,233.062 99.600 C 234.040 98.940,235.011 98.400,235.220 98.400 C 235.429 98.400,235.600 98.263,235.600 98.095 C 235.600 97.927,235.993 97.612,236.472 97.395 C 236.952 97.178,237.627 96.419,237.972 95.709 C 238.318 94.999,238.748 94.414,238.929 94.409 C 239.387 94.396,240.400 93.338,240.400 92.871 C 240.400 92.659,240.670 92.382,241.000 92.255 C 241.330 92.129,241.600 91.702,241.600 91.307 C 241.600 90.913,242.050 90.252,242.600 89.839 C 243.150 89.426,243.600 88.753,243.600 88.344 C 243.600 87.935,243.780 87.600,244.000 87.600 C 244.220 87.600,244.400 87.330,244.400 87.000 C 244.400 86.670,244.670 86.400,245.000 86.400 C 245.373 86.400,245.600 86.022,245.600 85.400 C 245.600 84.850,245.780 84.400,246.000 84.400 C 246.220 84.400,246.400 84.034,246.400 83.587 C 246.400 83.141,246.670 82.671,247.000 82.545 C 247.330 82.418,247.600 82.064,247.600 81.757 C 247.600 81.451,247.780 81.200,248.000 81.200 C 248.220 81.200,248.400 80.862,248.400 80.449 C 248.400 80.036,248.670 79.474,249.000 79.200 C 249.330 78.926,249.600 78.364,249.600 77.951 C 249.600 77.538,249.780 77.200,250.000 77.200 C 250.220 77.200,250.400 76.570,250.400 75.800 C 250.400 74.822,250.581 74.400,251.000 74.400 C 251.373 74.400,251.600 74.022,251.600 73.400 C 251.600 72.850,251.780 72.400,252.000 72.400 C 252.220 72.400,252.400 71.789,252.400 71.043 C 252.400 70.205,252.630 69.597,253.000 69.455 C 253.377 69.311,253.600 68.699,253.600 67.813 C 253.600 67.036,253.780 66.400,254.000 66.400 C 254.220 66.400,254.400 65.792,254.400 65.049 C 254.400 64.306,254.653 63.488,254.963 63.231 C 255.552 62.742,255.894 60.686,256.249 55.500 C 256.407 53.184,256.605 52.400,257.030 52.400 C 257.906 52.400,257.877 32.881,257.000 32.545 C 256.552 32.373,256.397 31.642,256.387 29.657 C 256.370 26.136,255.933 25.600,253.080 25.600 C 251.852 25.600,250.736 25.780,250.600 26.000 " stroke="none" fill="#308e63" fill-rule="evenodd"></path><path id="path3" d="M80.098 98.666 C 79.821 98.777,79.697 99.033,79.821 99.234 C 79.945 99.435,79.497 99.600,78.824 99.600 C 78.151 99.600,77.600 99.780,77.600 100.000 C 77.600 100.220,77.259 100.400,76.843 100.400 C 76.426 100.400,75.982 100.670,75.855 101.000 C 75.729 101.330,75.169 101.600,74.613 101.600 C 74.056 101.600,73.600 101.737,73.600 101.905 C 73.600 102.211,72.415 102.933,71.100 103.429 C 70.715 103.574,70.400 103.852,70.400 104.047 C 70.400 104.241,70.049 104.400,69.620 104.400 C 69.191 104.400,68.696 104.646,68.520 104.946 C 68.344 105.246,67.615 105.791,66.900 106.156 C 66.185 106.522,65.600 106.996,65.600 107.210 C 65.600 107.425,65.330 107.600,65.000 107.600 C 64.670 107.600,64.400 107.780,64.400 108.000 C 64.400 108.220,64.171 108.400,63.891 108.400 C 63.611 108.400,62.500 109.210,61.422 110.200 C 60.344 111.190,59.331 112.000,59.173 112.000 C 59.014 112.000,58.026 112.810,56.978 113.800 C 55.930 114.790,54.952 115.600,54.804 115.600 C 54.656 115.600,54.294 116.050,54.000 116.600 C 53.706 117.150,53.302 117.600,53.104 117.600 C 52.706 117.600,51.600 118.609,51.600 118.971 C 51.600 119.096,50.880 119.941,50.000 120.848 C 49.120 121.755,48.400 122.667,48.400 122.875 C 48.400 123.083,47.770 123.848,47.000 124.574 C 46.230 125.300,45.600 126.098,45.600 126.347 C 45.600 126.596,45.440 126.800,45.243 126.800 C 45.047 126.800,44.772 127.257,44.632 127.816 C 44.475 128.440,44.200 128.724,43.920 128.551 C 43.619 128.364,43.551 128.495,43.719 128.934 C 43.860 129.300,43.790 129.600,43.564 129.600 C 43.338 129.600,43.281 129.808,43.438 130.062 C 43.616 130.349,43.548 130.415,43.259 130.236 C 42.990 130.070,42.682 130.255,42.526 130.675 C 42.379 131.074,42.101 131.506,41.909 131.636 C 41.717 131.766,41.532 132.248,41.497 132.708 C 41.462 133.168,41.311 133.469,41.161 133.376 C 40.811 133.160,39.600 134.992,39.600 135.737 C 39.600 136.048,39.330 136.526,39.000 136.800 C 38.670 137.074,38.400 137.647,38.400 138.073 C 38.400 138.562,38.228 138.741,37.932 138.558 C 37.616 138.363,37.548 138.488,37.724 138.945 C 37.886 139.369,37.688 139.875,37.192 140.300 C 36.756 140.673,36.400 141.283,36.400 141.656 C 36.400 142.028,36.216 142.395,35.991 142.470 C 35.767 142.544,35.557 143.287,35.526 144.121 C 35.485 145.205,35.317 145.577,34.935 145.430 C 34.562 145.287,34.400 145.586,34.400 146.413 C 34.400 147.066,34.220 147.600,34.000 147.600 C 33.780 147.600,33.600 148.039,33.600 148.576 C 33.600 149.113,33.417 149.666,33.193 149.804 C 32.970 149.942,32.891 150.223,33.017 150.428 C 33.144 150.632,33.057 150.800,32.824 150.800 C 32.591 150.800,32.400 151.250,32.400 151.800 C 32.400 152.350,32.220 152.800,32.000 152.800 C 31.780 152.800,31.600 153.616,31.600 154.613 C 31.600 155.729,31.401 156.502,31.081 156.624 C 30.795 156.734,30.517 157.493,30.462 158.311 C 30.407 159.129,30.190 159.970,29.981 160.179 C 29.771 160.389,29.600 161.499,29.600 162.647 C 29.600 163.952,29.414 164.795,29.104 164.899 C 28.210 165.197,27.902 171.063,27.915 187.600 C 27.927 203.990,28.261 211.143,29.000 210.832 C 29.230 210.735,29.457 211.588,29.535 212.832 C 29.609 214.024,29.834 215.060,30.035 215.133 C 30.236 215.207,30.400 215.442,30.400 215.657 C 30.400 215.872,30.189 215.917,29.932 215.758 C 29.598 215.552,29.561 215.688,29.803 216.234 C 29.989 216.655,30.217 217.900,30.308 219.000 C 30.399 220.100,30.657 221.180,30.882 221.400 C 31.158 221.671,31.197 221.494,31.002 220.850 C 30.805 220.199,30.854 219.986,31.157 220.174 C 31.410 220.330,31.600 221.604,31.600 223.144 C 31.600 224.627,31.762 226.011,31.961 226.220 C 32.159 226.429,32.410 227.404,32.518 228.386 C 32.626 229.368,32.914 230.238,33.157 230.319 C 33.401 230.400,33.600 231.251,33.600 232.210 C 33.600 233.168,33.780 234.064,34.000 234.200 C 34.220 234.336,34.400 235.054,34.400 235.795 C 34.400 236.536,34.670 237.413,35.000 237.743 C 35.330 238.073,35.600 238.770,35.600 239.291 C 35.600 239.813,35.825 240.482,36.100 240.779 C 36.506 241.216,36.488 241.258,36.000 241.000 C 35.512 240.742,35.494 240.784,35.900 241.221 C 36.175 241.518,36.400 242.332,36.400 243.031 C 36.400 243.730,36.670 244.526,37.000 244.800 C 37.330 245.074,37.600 245.895,37.600 246.625 C 37.600 247.355,37.780 248.064,38.000 248.200 C 38.220 248.336,38.400 249.072,38.400 249.836 C 38.400 250.702,38.626 251.312,39.000 251.455 C 39.370 251.597,39.600 252.205,39.600 253.043 C 39.600 253.789,39.780 254.400,40.000 254.400 C 40.220 254.400,40.400 255.036,40.400 255.813 C 40.400 256.699,40.623 257.311,41.000 257.455 C 41.370 257.597,41.600 258.205,41.600 259.043 C 41.600 259.789,41.780 260.400,42.000 260.400 C 42.220 260.400,42.400 261.036,42.400 261.813 C 42.400 262.699,42.623 263.311,43.000 263.455 C 43.330 263.582,43.600 264.170,43.600 264.763 C 43.600 265.355,43.769 266.011,43.976 266.220 C 44.183 266.429,44.447 267.125,44.562 267.768 C 44.677 268.410,44.957 269.050,45.184 269.190 C 45.411 269.330,45.636 269.930,45.685 270.522 C 45.734 271.115,45.915 271.600,46.087 271.600 C 46.259 271.600,46.400 272.131,46.400 272.780 C 46.400 273.429,46.644 274.104,46.942 274.280 C 47.449 274.580,47.724 275.376,48.274 278.132 C 48.399 278.754,48.748 279.358,49.050 279.475 C 49.353 279.591,49.600 280.206,49.600 280.843 C 49.600 281.479,49.780 282.000,50.000 282.000 C 50.220 282.000,50.400 282.469,50.400 283.043 C 50.400 283.732,50.576 284.018,50.918 283.887 C 51.265 283.754,51.468 284.104,51.531 284.944 C 51.583 285.635,51.800 286.260,52.013 286.333 C 52.226 286.407,52.400 286.981,52.400 287.610 C 52.400 288.238,52.583 288.866,52.806 289.004 C 53.340 289.334,54.545 292.059,54.443 292.705 C 54.399 292.983,54.641 293.318,54.981 293.448 C 55.322 293.579,55.600 294.116,55.600 294.643 C 55.600 295.169,55.780 295.600,56.000 295.600 C 56.220 295.600,56.400 296.050,56.400 296.600 C 56.400 297.150,56.591 297.600,56.824 297.600 C 57.057 297.600,57.136 297.780,57.000 298.000 C 56.864 298.220,56.943 298.400,57.176 298.400 C 57.409 298.400,57.600 298.749,57.600 299.176 C 57.600 299.603,57.780 300.064,58.000 300.200 C 58.220 300.336,58.400 300.802,58.400 301.236 C 58.400 301.670,58.670 302.129,59.000 302.255 C 59.330 302.382,59.600 302.916,59.600 303.443 C 59.600 303.969,59.780 304.400,60.000 304.400 C 60.220 304.400,60.400 304.779,60.400 305.243 C 60.400 305.769,60.595 306.011,60.918 305.887 C 61.265 305.754,61.468 306.104,61.531 306.944 C 61.583 307.635,61.800 308.260,62.013 308.333 C 62.226 308.407,62.400 308.812,62.400 309.233 C 62.400 309.655,62.591 310.000,62.824 310.000 C 63.057 310.000,63.118 309.775,62.959 309.500 C 62.801 309.225,62.827 309.142,63.018 309.315 C 63.208 309.488,63.424 310.079,63.497 310.628 C 63.571 311.177,63.986 312.205,64.421 312.913 C 64.856 313.621,65.320 314.515,65.452 314.900 C 65.585 315.285,65.852 315.600,66.047 315.600 C 66.241 315.600,66.400 315.951,66.400 316.380 C 66.400 316.809,66.625 317.304,66.900 317.480 C 67.570 317.909,68.741 319.438,68.108 319.058 C 67.825 318.888,67.910 319.280,68.308 319.979 C 68.689 320.648,69.135 321.196,69.300 321.197 C 69.465 321.199,69.600 321.470,69.600 321.800 C 69.600 322.130,69.780 322.400,70.000 322.400 C 70.220 322.400,70.400 322.751,70.400 323.180 C 70.400 323.609,70.625 324.104,70.901 324.280 C 71.176 324.456,71.653 325.089,71.961 325.686 C 72.269 326.284,72.661 326.686,72.833 326.580 C 73.004 326.474,73.275 326.598,73.434 326.855 C 73.615 327.148,73.550 327.216,73.262 327.038 C 73.008 326.881,72.800 326.943,72.800 327.176 C 72.800 327.409,72.946 327.600,73.125 327.600 C 73.304 327.600,73.700 328.236,74.005 329.012 C 74.312 329.796,74.771 330.343,75.035 330.242 C 75.312 330.136,75.611 330.553,75.747 331.234 C 75.876 331.880,76.506 332.921,77.146 333.547 C 77.786 334.173,78.432 335.070,78.582 335.542 C 78.731 336.014,79.022 336.400,79.227 336.400 C 79.432 336.400,79.600 336.593,79.600 336.829 C 79.600 337.362,80.610 338.400,81.128 338.400 C 81.340 338.400,81.626 338.850,81.764 339.400 C 82.335 341.673,98.938 357.256,100.055 356.566 C 100.240 356.452,100.272 356.667,100.127 357.045 C 99.948 357.512,100.014 357.638,100.335 357.440 C 100.602 357.275,100.909 357.419,101.046 357.775 C 101.178 358.119,101.437 358.400,101.622 358.400 C 101.807 358.400,102.444 358.850,103.038 359.400 C 103.631 359.950,104.431 360.400,104.816 360.400 C 105.200 360.400,105.618 360.670,105.745 361.000 C 105.871 361.330,106.341 361.600,106.787 361.600 C 107.234 361.600,107.600 361.780,107.600 362.000 C 107.600 362.220,107.870 362.400,108.200 362.400 C 108.530 362.400,108.800 362.567,108.800 362.771 C 108.800 363.186,111.050 364.400,111.819 364.400 C 112.091 364.400,112.418 364.670,112.545 365.000 C 112.671 365.330,113.053 365.600,113.393 365.600 C 113.733 365.600,114.323 365.765,114.705 365.966 C 115.087 366.168,116.120 366.627,117.000 366.986 C 117.880 367.345,118.913 367.810,119.295 368.019 C 119.677 368.229,120.332 368.400,120.752 368.400 C 121.171 368.400,121.618 368.670,121.745 369.000 C 121.879 369.351,122.479 369.600,123.187 369.600 C 123.854 369.600,124.400 369.780,124.400 370.000 C 124.400 370.220,125.120 370.400,126.000 370.400 C 127.156 370.400,127.600 370.567,127.600 371.000 C 127.600 371.431,128.041 371.600,129.167 371.600 C 130.028 371.600,130.793 371.770,130.867 371.978 C 130.940 372.186,131.934 372.397,133.077 372.448 C 134.292 372.502,135.121 372.719,135.077 372.970 C 135.032 373.222,135.909 373.451,137.191 373.524 C 138.396 373.592,139.521 373.862,139.691 374.124 C 139.924 374.483,140.086 374.467,140.350 374.057 C 140.594 373.679,140.783 373.649,140.974 373.957 C 141.124 374.201,142.149 374.400,143.252 374.400 C 144.476 374.400,145.484 374.627,145.841 374.984 C 146.722 375.864,178.841 375.902,179.720 375.023 C 180.127 374.616,181.285 374.412,183.455 374.368 C 185.185 374.332,186.786 374.156,187.012 373.975 C 187.239 373.795,188.409 373.610,189.612 373.565 C 190.816 373.519,192.070 373.256,192.400 372.980 C 193.428 372.121,203.022 371.262,203.727 371.967 C 203.965 372.205,205.002 372.400,206.031 372.400 C 207.206 372.400,208.087 372.623,208.400 373.000 C 208.736 373.404,209.638 373.600,211.169 373.600 C 212.444 373.600,213.658 373.818,213.937 374.097 C 214.332 374.492,214.510 374.472,214.811 373.997 C 215.062 373.598,215.190 373.566,215.194 373.900 C 215.198 374.251,216.020 374.400,217.951 374.400 C 219.908 374.400,220.846 374.573,221.200 375.000 C 221.949 375.902,254.041 375.902,254.943 375.000 C 255.362 374.581,256.388 374.400,258.348 374.400 C 259.891 374.400,261.264 374.220,261.400 374.000 C 261.536 373.780,262.524 373.600,263.595 373.600 C 264.793 373.600,265.774 373.369,266.143 373.000 C 266.501 372.642,267.479 372.400,268.571 372.400 C 269.577 372.400,270.400 372.220,270.400 372.000 C 270.400 371.780,271.036 371.600,271.813 371.600 C 272.699 371.600,273.311 371.377,273.455 371.000 C 273.597 370.630,274.205 370.400,275.043 370.400 C 275.789 370.400,276.400 370.220,276.400 370.000 C 276.400 369.780,277.011 369.600,277.757 369.600 C 278.595 369.600,279.203 369.370,279.345 369.000 C 279.471 368.670,280.031 368.400,280.587 368.400 C 281.144 368.400,281.600 368.220,281.600 368.000 C 281.600 367.780,282.095 367.597,282.700 367.593 C 283.345 367.589,284.190 367.175,284.742 366.593 C 285.327 365.976,286.128 365.600,286.855 365.600 C 287.526 365.600,288.123 365.344,288.255 365.000 C 288.382 364.670,288.916 364.400,289.443 364.400 C 289.969 364.400,290.400 364.240,290.400 364.043 C 290.400 363.847,290.850 363.574,291.400 363.436 C 291.950 363.298,292.400 363.008,292.400 362.792 C 292.400 362.577,292.670 362.400,293.000 362.400 C 293.330 362.400,293.600 362.220,293.600 362.000 C 293.600 361.780,293.966 361.600,294.413 361.600 C 294.859 361.600,295.317 361.361,295.429 361.068 C 295.541 360.776,296.256 360.292,297.017 359.993 C 297.777 359.695,298.400 359.214,298.400 358.925 C 298.400 358.636,298.715 358.394,299.100 358.387 C 300.345 358.365,301.504 357.245,300.798 356.746 C 300.294 356.391,300.308 356.359,300.888 356.545 C 301.267 356.667,301.839 356.504,302.160 356.183 C 302.481 355.862,302.927 355.600,303.152 355.600 C 303.376 355.600,303.704 355.375,303.880 355.099 C 304.056 354.824,304.695 354.344,305.300 354.032 C 305.905 353.720,306.400 353.225,306.400 352.932 C 306.400 352.640,306.593 352.400,306.829 352.400 C 307.382 352.400,308.400 351.382,308.400 350.829 C 308.400 350.593,308.593 350.400,308.829 350.400 C 309.382 350.400,310.400 349.382,310.400 348.829 C 310.400 348.593,310.593 348.400,310.829 348.400 C 311.382 348.400,312.400 347.382,312.400 346.829 C 312.400 346.593,312.593 346.400,312.829 346.400 C 313.382 346.400,314.400 345.382,314.400 344.829 C 314.400 344.593,314.593 344.400,314.829 344.400 C 315.475 344.400,316.400 343.343,316.400 342.605 C 316.400 342.246,316.577 342.062,316.794 342.196 C 317.243 342.474,318.864 340.027,318.558 339.533 C 318.448 339.355,318.638 339.316,318.979 339.447 C 319.323 339.579,319.600 339.476,319.600 339.216 C 319.600 338.958,320.230 338.152,321.000 337.426 C 321.770 336.700,322.400 335.722,322.400 335.253 C 322.400 334.784,322.649 334.400,322.954 334.400 C 323.259 334.400,323.808 333.770,324.173 333.000 C 324.539 332.230,324.965 331.600,325.121 331.600 C 325.470 331.600,326.617 329.126,326.479 328.670 C 326.425 328.489,326.533 328.435,326.719 328.550 C 327.159 328.822,328.400 327.370,328.400 326.583 C 328.400 326.248,328.670 325.871,329.000 325.745 C 329.330 325.618,329.600 325.264,329.600 324.957 C 329.600 324.651,329.780 324.400,330.000 324.400 C 330.220 324.400,330.400 323.950,330.400 323.400 C 330.400 322.778,330.627 322.400,331.000 322.400 C 331.330 322.400,331.600 322.130,331.600 321.800 C 331.600 321.470,331.780 321.200,332.000 321.200 C 332.220 321.200,332.400 320.570,332.400 319.800 C 332.400 319.019,332.602 318.400,332.856 318.400 C 333.471 318.400,334.372 317.165,334.387 316.300 C 334.394 315.915,334.572 315.600,334.781 315.600 C 334.991 315.600,335.479 314.925,335.866 314.100 C 336.253 313.275,336.801 312.362,337.085 312.071 C 337.368 311.781,337.600 311.283,337.600 310.966 C 337.600 310.224,338.455 308.693,339.100 308.280 C 339.375 308.104,339.600 307.609,339.600 307.180 C 339.600 306.751,339.780 306.400,340.000 306.400 C 340.220 306.400,340.400 305.969,340.400 305.443 C 340.400 304.916,340.670 304.382,341.000 304.255 C 341.330 304.129,341.600 303.659,341.600 303.213 C 341.600 302.766,341.780 302.400,342.000 302.400 C 342.220 302.400,342.400 301.969,342.400 301.443 C 342.400 300.916,342.670 300.382,343.000 300.255 C 343.330 300.129,343.600 299.674,343.600 299.246 C 343.600 298.817,343.774 298.407,343.987 298.333 C 344.200 298.260,344.419 297.615,344.472 296.900 C 344.528 296.157,344.791 295.600,345.085 295.600 C 345.368 295.600,345.600 295.150,345.600 294.600 C 345.600 294.050,345.780 293.600,346.000 293.600 C 346.220 293.600,346.400 293.169,346.400 292.643 C 346.400 292.116,346.670 291.582,347.000 291.455 C 347.330 291.329,347.600 290.769,347.600 290.213 C 347.600 289.656,347.741 289.200,347.913 289.200 C 348.085 289.200,348.265 288.705,348.314 288.100 C 348.362 287.495,348.671 286.800,349.001 286.556 C 349.330 286.312,349.600 285.727,349.600 285.256 C 349.600 284.785,349.780 284.400,350.000 284.400 C 350.220 284.400,350.400 283.849,350.400 283.176 C 350.400 282.487,350.570 282.058,350.788 282.193 C 351.002 282.325,351.283 281.930,351.412 281.316 C 351.542 280.702,351.817 279.887,352.024 279.505 C 352.231 279.123,352.400 278.526,352.400 278.177 C 352.400 277.828,352.670 277.273,353.000 276.943 C 353.330 276.613,353.600 275.906,353.600 275.371 C 353.600 274.837,353.780 274.400,354.000 274.400 C 354.220 274.400,354.400 273.680,354.400 272.800 C 354.400 271.920,354.220 271.200,354.000 271.200 C 353.630 271.200,353.447 271.882,353.493 273.100 C 353.503 273.375,353.261 273.600,352.956 273.600 C 352.605 273.600,352.400 274.043,352.400 274.800 C 352.400 275.600,352.200 276.000,351.800 276.000 C 351.427 276.000,351.200 276.378,351.200 277.000 C 351.200 277.550,351.034 278.000,350.832 278.000 C 350.629 278.000,350.345 278.538,350.201 279.195 C 350.057 279.853,349.772 280.494,349.569 280.619 C 349.366 280.745,349.200 281.175,349.200 281.575 C 349.200 281.975,348.930 282.526,348.600 282.800 C 348.270 283.074,348.000 283.636,348.000 284.049 C 348.000 284.462,347.820 284.800,347.600 284.800 C 347.380 284.800,347.200 284.994,347.200 285.232 C 347.200 285.655,341.693 296.839,340.126 299.600 C 339.688 300.370,338.739 302.065,338.016 303.367 C 324.337 327.996,306.904 344.679,286.800 352.379 C 285.590 352.843,284.240 353.378,283.800 353.570 C 278.638 355.812,266.736 358.414,258.000 359.208 C 248.792 360.045,245.027 360.089,237.400 359.445 C 226.855 358.556,222.218 357.852,211.900 355.579 C 210.044 355.170,209.156 355.170,207.300 355.579 C 190.301 359.324,177.437 360.500,164.739 359.469 C 156.814 358.826,155.033 358.586,148.800 357.325 C 133.176 354.162,117.130 346.113,106.151 335.930 C 97.317 327.737,88.551 316.377,82.066 304.719 C 81.418 303.553,80.324 301.610,79.635 300.400 C 78.425 298.277,71.562 284.462,70.294 281.600 C 69.953 280.830,69.061 278.850,68.312 277.200 C 67.563 275.550,66.712 273.570,66.420 272.800 C 66.129 272.030,65.465 270.466,64.945 269.325 C 64.425 268.183,64.000 267.004,64.000 266.705 C 64.000 266.405,63.850 265.989,63.666 265.780 C 63.482 265.571,63.018 264.500,62.635 263.400 C 62.252 262.300,61.772 261.040,61.570 260.600 C 61.154 259.694,59.465 255.103,58.553 252.400 C 58.219 251.410,57.535 249.430,57.033 248.000 C 56.530 246.570,55.807 244.410,55.426 243.200 C 55.044 241.990,54.587 240.640,54.409 240.200 C 54.118 239.477,52.848 235.278,51.990 232.200 C 51.806 231.540,51.359 230.010,50.996 228.800 C 50.633 227.590,50.181 225.970,49.990 225.200 C 49.800 224.430,49.349 222.720,48.988 221.400 C 48.628 220.080,48.175 218.280,47.983 217.400 C 47.790 216.520,47.350 214.630,47.005 213.200 C 46.659 211.770,46.215 209.790,46.018 208.800 C 45.821 207.810,45.375 205.560,45.026 203.800 C 44.678 202.040,44.214 199.007,43.996 197.060 C 43.777 195.114,43.509 193.376,43.399 193.198 C 42.436 191.641,42.585 167.862,43.593 162.048 C 44.642 156.005,44.858 154.873,45.473 152.200 C 49.827 133.277,61.918 114.238,76.200 103.814 C 77.080 103.172,78.196 102.231,78.681 101.723 C 79.165 101.215,79.861 100.800,80.228 100.800 C 80.688 100.800,80.831 100.562,80.692 100.030 C 80.551 99.490,80.656 99.323,81.045 99.473 C 81.376 99.600,81.600 99.427,81.600 99.043 C 81.600 98.407,81.070 98.274,80.098 98.666 M195.878 115.766 C 196.495 116.297,197.070 116.662,197.157 116.576 C 197.351 116.383,195.521 114.832,195.078 114.813 C 194.900 114.806,195.260 115.235,195.878 115.766 M356.900 264.622 C 356.295 265.280,356.240 266.400,356.813 266.400 C 357.320 266.400,357.714 265.450,357.534 264.663 C 357.421 264.172,357.320 264.165,356.900 264.622 M355.847 267.700 C 355.711 268.085,355.511 268.681,355.403 269.025 C 355.294 269.369,355.011 269.530,354.772 269.383 C 354.490 269.208,354.384 269.513,354.469 270.257 C 354.616 271.541,355.335 271.756,355.521 270.572 C 355.587 270.147,355.833 269.413,356.067 268.939 C 356.301 268.466,356.403 267.836,356.293 267.539 C 356.145 267.140,356.029 267.182,355.847 267.700 " stroke="none" fill="#bc1414" fill-rule="evenodd"></path><path id="path4" d="M156.428 45.900 C 156.413 46.175,156.152 46.400,155.849 46.400 C 155.546 46.400,155.074 46.670,154.800 47.000 C 154.526 47.330,153.964 47.600,153.551 47.600 C 153.138 47.600,152.800 47.759,152.800 47.953 C 152.800 48.148,152.485 48.426,152.100 48.571 C 150.785 49.067,149.600 49.789,149.600 50.095 C 149.600 50.263,149.150 50.400,148.600 50.400 C 147.978 50.400,147.600 50.627,147.600 51.000 C 147.600 51.332,147.245 51.600,146.805 51.600 C 144.168 51.600,143.723 54.280,146.000 56.446 C 146.880 57.283,147.600 58.155,147.600 58.383 C 147.600 58.611,148.230 59.466,149.000 60.282 C 149.770 61.099,150.400 61.909,150.400 62.083 C 150.400 62.258,150.670 62.400,151.000 62.400 C 151.343 62.400,151.600 62.760,151.600 63.240 C 151.600 63.720,152.457 64.919,153.600 66.038 C 154.700 67.115,155.600 68.177,155.600 68.397 C 155.600 68.618,156.230 69.466,157.000 70.282 C 157.770 71.099,158.400 71.909,158.400 72.083 C 158.400 72.258,158.670 72.400,159.000 72.400 C 159.343 72.400,159.600 72.760,159.600 73.240 C 159.600 73.720,160.457 74.919,161.600 76.038 C 162.700 77.115,163.600 78.177,163.600 78.397 C 163.600 78.618,164.230 79.466,165.000 80.282 C 165.770 81.099,166.400 81.909,166.400 82.083 C 166.400 82.258,166.670 82.400,167.000 82.400 C 167.343 82.400,167.600 82.760,167.600 83.240 C 167.600 83.720,168.457 84.919,169.600 86.038 C 170.700 87.115,171.600 88.177,171.600 88.397 C 171.600 88.618,172.230 89.466,173.000 90.282 C 173.770 91.099,174.400 91.909,174.400 92.083 C 174.400 92.258,174.670 92.400,175.000 92.400 C 175.346 92.400,175.600 92.761,175.600 93.253 C 175.600 93.722,176.230 94.700,177.000 95.426 C 177.770 96.152,178.400 96.938,178.400 97.173 C 178.400 97.408,178.670 97.600,179.000 97.600 C 179.330 97.600,179.603 97.825,179.608 98.100 C 179.612 98.375,180.242 99.318,181.008 100.196 C 181.773 101.073,182.400 101.928,182.400 102.096 C 182.400 102.263,182.670 102.400,183.000 102.400 C 183.335 102.400,183.600 102.756,183.600 103.207 C 183.600 103.651,184.230 104.626,185.000 105.374 C 185.770 106.121,186.400 106.928,186.400 107.167 C 186.400 107.405,186.670 107.600,187.000 107.600 C 187.330 107.600,187.600 107.788,187.600 108.017 C 187.600 108.636,188.305 109.357,191.400 111.900 C 192.940 113.165,194.260 114.335,194.333 114.500 C 194.407 114.665,194.679 114.800,194.937 114.800 C 195.196 114.800,195.856 115.214,196.404 115.721 C 198.520 117.676,199.619 116.901,197.753 114.769 C 197.449 114.421,197.200 114.027,197.200 113.893 C 197.200 113.758,196.156 111.972,194.879 109.924 C 193.603 107.876,192.432 105.930,192.277 105.600 C 192.122 105.270,191.591 104.348,191.097 103.550 C 190.604 102.753,188.588 99.423,186.617 96.150 C 184.647 92.878,182.916 90.110,182.771 90.000 C 182.626 89.890,182.392 89.427,182.249 88.971 C 182.107 88.514,181.677 87.794,181.293 87.371 C 180.908 86.947,180.375 86.150,180.106 85.600 C 179.838 85.050,179.165 83.880,178.612 83.000 C 178.058 82.120,177.482 81.130,177.332 80.800 C 177.181 80.470,176.954 80.110,176.825 80.000 C 176.697 79.890,176.238 79.125,175.805 78.300 C 175.372 77.475,174.879 76.800,174.709 76.800 C 174.539 76.800,174.400 76.543,174.400 76.229 C 174.400 75.914,174.175 75.419,173.900 75.129 C 173.625 74.838,173.134 74.060,172.808 73.400 C 172.483 72.740,171.852 71.660,171.407 71.000 C 169.958 68.851,169.580 68.211,169.342 67.500 C 169.212 67.115,168.967 66.800,168.797 66.800 C 168.626 66.800,168.374 66.350,168.236 65.800 C 168.098 65.250,167.808 64.800,167.592 64.800 C 167.377 64.800,167.200 64.623,167.200 64.408 C 167.200 64.072,166.030 62.030,164.097 58.990 C 163.821 58.556,163.474 57.930,163.327 57.600 C 163.179 57.270,162.955 56.910,162.829 56.800 C 162.435 56.456,161.587 55.031,161.342 54.300 C 161.212 53.915,160.969 53.600,160.800 53.600 C 160.631 53.600,160.388 53.285,160.258 52.900 C 160.029 52.218,159.759 51.754,158.285 49.519 C 157.892 48.922,157.319 47.752,157.013 46.917 C 156.707 46.083,156.444 45.625,156.428 45.900 M183.232 68.824 C 183.214 69.166,183.480 69.796,183.822 70.224 C 184.434 70.988,184.438 70.987,184.076 70.200 C 183.874 69.760,183.608 69.130,183.486 68.800 C 183.293 68.282,183.259 68.285,183.232 68.824 M233.000 99.619 C 232.120 100.254,231.174 100.779,230.897 100.787 C 230.620 100.794,229.540 101.237,228.497 101.770 C 227.454 102.304,225.430 103.311,224.000 104.010 C 218.311 106.787,206.139 114.126,204.800 115.586 C 202.095 118.536,200.564 118.272,200.001 114.759 C 199.533 111.842,198.782 108.800,198.528 108.800 C 198.191 108.800,198.849 113.766,199.240 114.180 C 199.438 114.389,199.600 115.229,199.600 116.047 C 199.600 117.994,199.935 118.801,200.743 118.797 C 201.251 118.794,207.226 114.903,209.800 112.899 C 210.458 112.386,214.099 110.129,215.600 109.302 C 216.370 108.878,218.080 107.924,219.400 107.182 C 222.087 105.673,231.077 101.200,231.424 101.200 C 231.547 101.200,232.473 100.570,233.482 99.800 C 235.677 98.124,235.280 97.975,233.000 99.619 " stroke="none" fill="#9d4e1d" fill-rule="evenodd"></path></g></svg>