<?xml version="1.0" standalone="no"?>
<!DOCTYPE svg PUBLIC "-//W3C//DTD SVG 20010904//EN"
 "http://www.w3.org/TR/2001/REC-SVG-20010904/DTD/svg10.dtd">
<svg version="1.0" xmlns="http://www.w3.org/2000/svg"
 width="400.000000pt" height="400.000000pt" viewBox="0 0 400.000000 400.000000"
 preserveAspectRatio="xMidYMid meet">

<g transform="translate(0.000000,400.000000) scale(0.100000,-0.100000)"
fill="#000000" stroke="none">
<path d="M2434 3690 c-290 -145 -473 -484 -436 -808 6 -56 6 -70 -4 -60 -6 7
-100 162 -209 343 -109 182 -204 336 -211 344 -10 11 -20 9 -63 -14 -28 -16
-51 -31 -51 -34 0 -3 106 -138 235 -300 129 -161 235 -295 235 -297 0 -1 -30
16 -67 38 -192 117 -429 188 -628 188 -155 0 -374 -54 -495 -122 -350 -197
-513 -581 -444 -1047 43 -290 195 -737 346 -1021 197 -368 396 -542 716 -623
120 -30 420 -30 557 0 l90 20 95 -20 c141 -31 430 -30 552 0 319 81 519 254
716 623 140 262 286 688 336 980 73 428 -41 790 -317 1006 -204 160 -514 236
-776 190 -189 -33 -422 -128 -548 -223 -18 -13 -33 -21 -33 -18 0 3 113 203
251 443 139 240 254 440 256 445 10 17 -30 5 -103 -33z m566 -761 c49 -11 129
-41 190 -71 178 -86 286 -216 339 -408 45 -160 50 -367 16 -592 -20 -129 -46
-241 -55 -231 -4 4 -22 51 -39 103 -120 351 -337 648 -603 829 -75 50 -235
127 -326 155 -93 29 -233 56 -296 56 l-41 1 60 34 c238 138 505 181 755 124z"/>
</g>
</svg>
